<svg version="1.1" viewBox="0.0 0.0 512.0 512.0" fill="none" stroke="none" stroke-linecap="square" stroke-miterlimit="10" xmlns:xlink="http://www.w3.org/1999/xlink" xmlns="http://www.w3.org/2000/svg"><clipPath id="p.0"><path d="m0 0l512.0 0l0 512.0l-512.0 0l0 -512.0z" clip-rule="nonzero"/></clipPath><g clip-path="url(#p.0)"><path fill="#000000" fill-opacity="0.0" d="m0 0l512.0 0l0 512.0l-512.0 0z" fill-rule="evenodd"/><path fill="#000000" fill-opacity="0.0" d="m0 0l512.0 0l0 512.0l-512.0 0z" fill-rule="evenodd"/><path fill="#40727e" d="m512.0 256.0l0 0c0 141.38489 -114.61511 256.0 -256.0 256.0l0 0c-67.89542 0 -133.01003 -26.971344 -181.01933 -74.98065c-48.009315 -48.00934 -74.98067 -113.12393 -74.98067 -181.01935l0 0c0 -141.38489 114.615105 -256.0 256.0 -256.0l0 0c141.38489 0 256.0 114.615105 256.0 256.0z" fill-rule="evenodd"/><path fill="#40727e" d="m327.2992 258.74814l-78.92915 66.897644l-61.606293 -72.59842l78.92912 -66.897644z" fill-rule="evenodd"/><path fill="#e2e5ec" d="m341.27823 393.39764l0 0c0 6.6187134 -5.3655396 11.984253 -11.984253 11.984253l0 0c-3.1784363 0 -6.2266846 -1.2626343 -8.474152 -3.5101013c-2.2474976 -2.2474976 -3.5101013 -5.295746 -3.5101013 -8.474152l0 0c0 -6.6187134 5.365509 -11.984253 11.984253 -11.984253l0 0c6.6187134 0 11.984253 5.3655396 11.984253 11.984253z" fill-rule="evenodd"/><path fill="#e2e5ec" d="m195.81627 393.39764l0 0c0 6.6187134 -5.3655243 11.984253 -11.984253 11.984253l0 0c-3.178421 0 -6.226654 -1.2626343 -8.474136 -3.5101013c-2.2474823 -2.2474976 -3.5101166 -5.295746 -3.5101166 -8.474152l0 0c0 -6.6187134 5.3655396 -11.984253 11.984253 -11.984253l0 0c6.6187286 0 11.984253 5.3655396 11.984253 11.984253z" fill-rule="evenodd"/><path fill="#765842" d="m224.50919 285.07874l0 0c0 6.6187134 -5.3655243 11.984253 -11.984253 11.984253l0 0c-3.178421 0 -6.226654 -1.2626343 -8.474136 -3.5101013c-2.2474976 -2.2474976 -3.5101166 -5.2957153 -3.5101166 -8.474152l0 0c0 -6.6187134 5.3655396 -11.984253 11.984253 -11.984253l0 0c6.6187286 0 11.984253 5.3655396 11.984253 11.984253z" fill-rule="evenodd"/><path fill="#765842" d="m310.82416 226.14699l0 0c0 6.6187134 -5.3655396 11.984253 -11.984253 11.984253l0 0c-3.1784363 0 -6.2266846 -1.2626343 -8.474152 -3.5101166c-2.2474976 -2.2474823 -3.5101013 -5.2957153 -3.5101013 -8.474136l0 0c0 -6.6187286 5.365509 -11.984253 11.984253 -11.984253l0 0c6.6187134 0 11.984253 5.3655243 11.984253 11.984253z" fill-rule="evenodd"/><path fill="#e2e5ec" d="m381.27823 441.39764l0 0c0 6.6187134 -5.3655396 11.984253 -11.984253 11.984253l0 0c-3.1784363 0 -6.2266846 -1.2626343 -8.474152 -3.5101013c-2.2474976 -2.2474976 -3.5101013 -5.295746 -3.5101013 -8.474152l0 0c0 -6.6187134 5.365509 -11.984253 11.984253 -11.984253l0 0c6.6187134 0 11.984253 5.3655396 11.984253 11.984253z" fill-rule="evenodd"/><path fill="#e2e5ec" d="m155.81627 441.39764l0 0c0 6.6187134 -5.3655243 11.984253 -11.984253 11.984253l0 0c-3.178421 0 -6.226654 -1.2626343 -8.474136 -3.5101013c-2.2474823 -2.2474976 -3.5101166 -5.295746 -3.5101166 -8.474152l0 0c0 -6.6187134 5.3655396 -11.984253 11.984253 -11.984253l0 0c6.6187286 0 11.984253 5.3655396 11.984253 11.984253z" fill-rule="evenodd"/><path fill="#000000" fill-opacity="0.0" d="m367.81628 441.39896l-224.8504 0" fill-rule="evenodd"/><path stroke="#e2e5ec" stroke-width="24.0" stroke-linejoin="round" stroke-linecap="butt" d="m367.81628 441.39896l-224.8504 0" fill-rule="evenodd"/><path fill="#000000" fill-opacity="0.0" d="m327.19684 393.39896l-145.25983 0" fill-rule="evenodd"/><path stroke="#e2e5ec" stroke-width="24.0" stroke-linejoin="round" stroke-linecap="butt" d="m327.19684 393.39896l-145.25983 0" fill-rule="evenodd"/><path fill="#000000" fill-opacity="0.0" d="m329.29282 392.76746l0 -52.44095" fill-rule="evenodd"/><path stroke="#e2e5ec" stroke-width="24.0" stroke-linejoin="round" stroke-linecap="butt" d="m329.29282 392.76746l0 -52.44095" fill-rule="evenodd"/><path fill="#000000" fill-opacity="0.0" d="m183.83159 342.12537c0 -43.118103 35.779526 -64.677155 71.55905 -86.23622c35.779526 -21.559052 71.55904 -43.118103 71.55904 -86.23622" fill-rule="evenodd"/><path stroke="#e2e5ec" stroke-width="24.0" stroke-linejoin="round" stroke-linecap="butt" d="m183.83159 342.12537c0 -43.118103 35.779526 -64.677155 71.55905 -86.23622c35.779526 -21.559052 71.55904 -43.118103 71.55904 -86.23622" fill-rule="evenodd"/><path fill="#000000" fill-opacity="0.0" d="m183.83159 393.4l0 -52.440918" fill-rule="evenodd"/><path stroke="#e2e5ec" stroke-width="24.0" stroke-linejoin="round" stroke-linecap="butt" d="m183.83159 393.4l0 -52.440918" fill-rule="evenodd"/><path fill="#000000" fill-opacity="0.0" d="m329.29282 342.12537c0 -43.06299 -36.944885 -64.59448 -73.889755 -86.12599c-36.944885 -21.531494 -73.88977 -43.06299 -73.88977 -86.12598" fill-rule="evenodd"/><path stroke="#e2e5ec" stroke-width="24.0" stroke-linejoin="round" stroke-linecap="butt" d="m329.29282 342.12537c0 -43.06299 -36.944885 -64.59448 -73.889755 -86.12599c-36.944885 -21.531494 -73.88977 -43.06299 -73.88977 -86.12598" fill-rule="evenodd"/><path fill="#000000" fill-opacity="0.0" d="m182.0 118.3832l145.13385 0" fill-rule="evenodd"/><path stroke="#e2e5ec" stroke-width="24.0" stroke-linejoin="round" stroke-linecap="butt" d="m182.0 118.3832l145.13385 0" fill-rule="evenodd"/><path fill="#000000" fill-opacity="0.0" d="m181.68643 118.38556l0 52.44095" fill-rule="evenodd"/><path stroke="#e2e5ec" stroke-width="24.0" stroke-linejoin="round" stroke-linecap="butt" d="m181.68643 118.38556l0 52.44095" fill-rule="evenodd"/><path fill="#000000" fill-opacity="0.0" d="m327.14767 118.38556l0 52.44095" fill-rule="evenodd"/><path stroke="#e2e5ec" stroke-width="24.0" stroke-linejoin="round" stroke-linecap="butt" d="m327.14767 118.38556l0 52.44095" fill-rule="evenodd"/><path fill="#e2e5ec" d="m339.13123 118.3832l0 0c0 6.618721 -5.365509 11.984245 -11.984253 11.984245l0 0c-3.1784058 0 -6.226654 -1.262619 -8.474121 -3.5101013c-2.2474976 -2.2474823 -3.5101318 -5.295723 -3.5101318 -8.474144l0 0c0 -6.618721 5.3655396 -11.984253 11.984253 -11.984253l0 0c6.618744 0 11.984253 5.365532 11.984253 11.984253z" fill-rule="evenodd"/><path fill="#e2e5ec" d="m193.67192 118.3832l0 0c0 6.618721 -5.3655396 11.984245 -11.984253 11.984245l0 0c-3.178421 0 -6.2266693 -1.262619 -8.474152 -3.5101013c-2.2474823 -2.2474823 -3.5101013 -5.295723 -3.5101013 -8.474144l0 0c0 -6.618721 5.3655243 -11.984253 11.984253 -11.984253l0 0c6.6187134 0 11.984253 5.365532 11.984253 11.984253z" fill-rule="evenodd"/><path fill="#000000" fill-opacity="0.0" d="m368.7257 70.333336l-224.85037 0" fill-rule="evenodd"/><path stroke="#e2e5ec" stroke-width="24.0" stroke-linejoin="round" stroke-linecap="butt" d="m368.7257 70.333336l-224.85037 0" fill-rule="evenodd"/><path fill="#e2e5ec" d="m381.11942 70.384514l0 0c0 6.618721 -5.3655396 11.984253 -11.984253 11.984253l0 0c-3.1784058 0 -6.226654 -1.2626266 -8.474152 -3.510109c-2.247467 -2.2474823 -3.5101013 -5.295723 -3.5101013 -8.474144l0 0c0 -6.618717 5.3655396 -11.984253 11.984253 -11.984253l0 0c6.6187134 0 11.984253 5.3655357 11.984253 11.984253z" fill-rule="evenodd"/><path fill="#e2e5ec" d="m155.65749 70.384514l0 0c0 6.618721 -5.3655396 11.984253 -11.984253 11.984253l0 0c-3.178421 0 -6.2266693 -1.2626266 -8.474152 -3.510109c-2.2474823 -2.2474823 -3.5101013 -5.295723 -3.5101013 -8.474144l0 0c0 -6.618717 5.3655243 -11.984253 11.984253 -11.984253l0 0c6.6187134 0 11.984253 5.3655357 11.984253 11.984253z" fill-rule="evenodd"/></g></svg>